# xmcd
#
# Track frame offsets: 
#        150
#        12223
#        20946
#        32973
#        42992
#        55068
#        65148
#        75503
#        84744
#        93989
#        106544
#        118295
#
# Disc length: 1702 seconds
#
# Revision: 1
# Processed by: cddbd v1.5.2PL0 Copyright (c) Steve Scherf et al.
# Submitted via: ExactAudioCopy v0.95b4
#
DISCID=9a06a40c
DTITLE=Ira Ironstrings - Plays Santa Claus
DYEAR=1959
DGENRE=Christmas
TTITLE0=Let It Snow! Let It Snow! Let It Snow!
TTITLE1=Jingle Bells Stomp
TTITLE2=Skater's Nightmare
TTITLE3=I Saw Mommy Kissing Santa Claus
TTITLE4=Christmas Is for the Birds
TTITLE5=My Two Front Teeth
TTITLE6=Deck Them Halls
TTITLE7=Over the River and Through the Woods
TTITLE8=Rudolph the Red-Nosed Reindeer
TTITLE9=Frosty the Snow Man
TTITLE10=Sleigh Ride
TTITLE11=Santa Claus Is Comin' to Town
EXTD=Album subtitle: Christmas Music for Those Who Have Heard Everythi
EXTD=ng\nIra Ironstrings was a pseudonym of bandleader, pedal steel gu
EXTD=itarist, and banjoist Alvino Rey [Alvin McBurney] (1908-07-01/200
EXTD=4-02-24).\nOriginally released as a Warner Bros. LP (1959).\nReis
EXTD=sue produced by Gordon Anderson - mastered by Bob Fisher.\nCD: Col
EXTD=lectors' Choice Music CCM-408 (2003-11-11), UPC 617742040821.
EXTT0=
EXTT1=
EXTT2=
EXTT3=
EXTT4=
EXTT5=
EXTT6=
EXTT7=
EXTT8=
EXTT9=
EXTT10=
EXTT11=
PLAYORDER=
